<svg id="illustrator" xmlns="http://www.w3.org/2000/svg" width="90" height="83.331" viewBox="0 0 90 83.331">
  <g id="vlpb">
    <g id="vlpc">
      <g id="vlpd">
        <path id="Path_1" data-name="Path 1" d="M15.938,0H74.063C82.875,0,90,6.766,90,15.135V68.2c0,8.369-7.125,15.135-15.937,15.135H15.938C7.125,83.331,0,76.565,0,68.2V15.135C0,6.766,7.125,0,15.938,0Z" fill="#300"/>
      </g>
    </g>
  </g>
  <g id="vlpe" transform="translate(19.647 18.482)">
    <g id="vlpf">
      <path id="Path_2" data-name="Path 2" d="M73.047,88.167H59.8l-2.706,8.369a.623.623,0,0,1-.677.5H49.721c-.392,0-.5-.214-.392-.641L60.8,63.382c.107-.356.214-.748.356-1.175a12.439,12.439,0,0,0,.214-2.315.353.353,0,0,1,.285-.392h9.223c.285,0,.427.107.463.285l13,36.68c.107.392,0,.57-.356.57H76.537a.538.538,0,0,1-.57-.392l-2.92-8.476ZM61.865,80.938H70.91c-.214-.748-.5-1.638-.819-2.564-.321-.962-.641-1.994-.962-3.063-.356-1.1-.677-2.172-1.033-3.276s-.677-2.137-.962-3.169c-.285-1-.534-1.923-.783-2.778h-.071a43.723,43.723,0,0,1-1.211,4.594c-.534,1.709-1.068,3.49-1.638,5.271-.5,1.816-1.033,3.49-1.567,4.986Z" transform="translate(-49.29 -56.794)" fill="#ff9a00"/>
      <path id="Path_3" data-name="Path 3" d="M162.076,60.838a4.407,4.407,0,0,1-3.169-1.246,4.626,4.626,0,0,1-1.211-3.276,4.19,4.19,0,0,1,1.282-3.169,4.561,4.561,0,0,1,3.169-1.246,4.264,4.264,0,0,1,3.241,1.246,4.9,4.9,0,0,1-.071,6.446,4.187,4.187,0,0,1-3.241,1.246Zm-3.988,30.911V64.328c0-.356.142-.5.463-.5H165.6c.321,0,.463.178.463.5V91.749c0,.392-.142.57-.463.57h-6.98A.5.5,0,0,1,158.088,91.749Z" transform="translate(-119.09 -51.9)" fill="#ff9a00"/>
    </g>
  </g>
</svg>
