<svg id="javascript" xmlns="http://www.w3.org/2000/svg" width="79.561" height="79.561" viewBox="0 0 79.561 79.561">
  <path id="Path_15" data-name="Path 15" d="M0,0H79.561V79.561H0Z" fill="#f0db4f"/>
  <path id="Path_16" data-name="Path 16" d="M328.638,501.73c-.582-3.63-2.949-6.678-9.96-9.522-2.435-1.119-5.15-1.921-5.96-3.766a4.108,4.108,0,0,1-.144-2.329c.522-2.11,3.04-2.768,5.037-2.163a5.542,5.542,0,0,1,3.237,3c3.434-2.223,3.426-2.208,5.823-3.736a14.842,14.842,0,0,0-1.921-2.571c-2.065-2.307-4.878-3.494-9.378-3.4-.779.1-1.565.2-2.345.3a10.635,10.635,0,0,0-5.642,3.328c-3.766,4.273-2.692,11.753,1.891,14.831,4.515,3.388,11.148,4.16,11.995,7.328.824,3.88-2.851,5.135-6.5,4.689-2.692-.56-4.19-1.929-5.808-4.417-2.98,1.724-2.98,1.724-6.043,3.486a13.448,13.448,0,0,0,2.708,3.683c5.763,5.846,20.185,5.559,22.772-3.29A10.924,10.924,0,0,0,328.638,501.73Zm-29.8-24.02H291.4c0,6.428-.03,12.811-.03,19.24,0,4.092.212,7.843-.454,8.992-1.089,2.261-3.91,1.981-5.2,1.543a6.387,6.387,0,0,1-2.745-2.851,3.828,3.828,0,0,0-.424-.681q-3.029,1.849-6.05,3.706a11.959,11.959,0,0,0,4.386,5.022,14.447,14.447,0,0,0,10.633,1.308,9.4,9.4,0,0,0,6-4.7c1.694-3.123,1.331-6.9,1.316-11.087C298.879,491.377,298.841,484.555,298.841,477.711Z" transform="translate(-255.589 -441.144)" fill="#323330"/>
</svg>
