<svg xmlns="http://www.w3.org/2000/svg" width="24.379" height="20.633" viewBox="0 0 24.379 20.633">
  <path id="linkedin" d="M0,7.4A2.131,2.131,0,0,1,.824,5.677,3.262,3.262,0,0,1,2.965,5a3.163,3.163,0,0,1,2.094.667,2.224,2.224,0,0,1,.824,1.792,2.083,2.083,0,0,1-.8,1.667,3.266,3.266,0,0,1-2.165.688H2.894A3.1,3.1,0,0,1,.8,9.127,2.185,2.185,0,0,1,0,7.4ZM.306,25.633V11.711H5.53V25.633Zm8.118,0h5.224V17.859a2.69,2.69,0,0,1,.188-1.125,3.078,3.078,0,0,1,1-1.2,2.777,2.777,0,0,1,1.683-.49q2.636,0,2.636,3.147v7.44h5.224V17.651a6.22,6.22,0,0,0-1.647-4.679,5.994,5.994,0,0,0-4.353-1.594,5.529,5.529,0,0,0-4.73,2.313v.042h-.024l.024-.042v-1.98H8.424q.047.667.047,4.147T8.424,25.633Z" transform="translate(0 -5)" fill="#fff"/>
</svg>
