<svg xmlns="http://www.w3.org/2000/svg" width="90.448" height="99.672" viewBox="0 0 90.448 99.672">
  <g id="nodejs" transform="translate(-0.603 -0.584)">
    <path id="Path_17" data-name="Path 17" d="M41.746,1.648a8.358,8.358,0,0,1,8.16,0Q68.54,12.177,87.175,22.7a7.672,7.672,0,0,1,3.875,6.608V71.539a7.756,7.756,0,0,1-4.164,6.751Q68.313,88.761,49.749,99.241a8.122,8.122,0,0,1-8.25-.229q-5.568-3.228-11.143-6.443a6.56,6.56,0,0,1-2.149-1.548c.474-.638,1.32-.718,2.008-1a26.009,26.009,0,0,0,4.4-2.051,1.026,1.026,0,0,1,1.144.069c3.174,1.82,6.32,3.693,9.505,5.5.679.392,1.367-.129,1.948-.452q18.226-10.3,36.464-20.578a1.206,1.206,0,0,0,.662-1.187q.013-20.9,0-41.8a1.306,1.306,0,0,0-.778-1.3Q65.053,17.8,46.554,7.362a1.285,1.285,0,0,0-1.453,0Q26.6,17.789,8.1,28.227a1.291,1.291,0,0,0-.782,1.3q0,20.9,0,41.8a1.182,1.182,0,0,0,.671,1.173q4.938,2.8,9.883,5.581a7.636,7.636,0,0,0,6.179.827,4.687,4.687,0,0,0,3.035-4.4c.017-13.85-.009-27.7.013-41.55a1.043,1.043,0,0,1,1.136-1.065c1.582-.011,3.166-.021,4.748,0a1.1,1.1,0,0,1,1.033,1.267C34,47.092,34.028,61.03,34,74.968c0,3.715-1.522,7.756-4.958,9.574-4.233,2.193-9.465,1.728-13.646-.375-3.62-1.807-7.075-3.939-10.631-5.875A7.737,7.737,0,0,1,.6,71.539V29.307a7.686,7.686,0,0,1,4.008-6.691Q23.181,12.136,41.746,1.648Z" transform="translate(0 0)" fill="#8cc84b"/>
    <path id="Path_18" data-name="Path 18" d="M119.741,85.74c5.4-.348,11.179-.206,16.038,2.454,3.762,2.038,5.847,6.316,5.914,10.5a1.136,1.136,0,0,1-1.233.836c-1.567,0-3.133.021-4.7-.011a1.211,1.211,0,0,1-1.134-1.175A7.155,7.155,0,0,0,131.2,93.4c-2.889-1.447-6.239-1.374-9.39-1.344-2.3.122-4.773.321-6.722,1.674a4.259,4.259,0,0,0-1.416,4.758c.5,1.2,1.884,1.582,3.013,1.938,6.507,1.7,13.4,1.532,19.785,3.772,2.643.913,5.227,2.688,6.132,5.455a11.653,11.653,0,0,1-1.974,11.117,15.578,15.578,0,0,1-8.363,4.507,40.181,40.181,0,0,1-12.624.536c-3.948-.45-8.057-1.487-11.1-4.177a11.653,11.653,0,0,1-3.753-9.192,1.053,1.053,0,0,1,1.153-.928c1.578-.013,3.155-.017,4.733,0a1.106,1.106,0,0,1,1.13,1.093,7.171,7.171,0,0,0,2.668,5.034c3.206,2.068,7.229,1.927,10.9,1.985,3.042-.135,6.456-.176,8.938-2.186a4.937,4.937,0,0,0,1.344-4.715c-.383-1.393-1.841-2.043-3.093-2.467-6.423-2.032-13.4-1.295-19.757-3.592-2.583-.913-5.08-2.638-6.072-5.291A10.838,10.838,0,0,1,108.9,90.1c2.842-2.861,6.945-3.963,10.845-4.357Z" transform="translate(-67.195 -54.838)" fill="#8cc84b"/>
  </g>
</svg>
