<svg id="photoshop" xmlns="http://www.w3.org/2000/svg" width="90" height="92.382" viewBox="0 0 90 92.382">
  <path id="Path_4" data-name="Path 4" d="M15.938,0H74.063C82.875,0,90,7.5,90,16.779V75.6c0,9.278-7.125,16.779-15.937,16.779H15.938C7.125,92.382,0,84.881,0,75.6V16.779C0,7.5,7.125,0,15.938,0Z" fill="#001e36"/>
  <g id="Group_1" data-name="Group 1" transform="translate(18.358 22.068)">
    <path id="Path_5" data-name="Path 5" d="M54,103.713V60.219c0-.3.127-.465.423-.465.719,0,1.395,0,2.367-.042,1.014-.042,2.071-.042,3.212-.085s2.367-.042,3.677-.085,2.578-.042,3.846-.042a24.854,24.854,0,0,1,8.707,1.31A15.094,15.094,0,0,1,81.9,64.276a13.458,13.458,0,0,1,3.086,4.819,16.178,16.178,0,0,1,.972,5.495,15.112,15.112,0,0,1-2.536,9,14.481,14.481,0,0,1-6.805,5.157,27.394,27.394,0,0,1-9.51,1.437c-1.014,0-1.691,0-2.113-.042s-1.014-.042-1.818-.042v13.568a.526.526,0,0,1-.465.592h-8.2c-.338,0-.507-.169-.507-.549Zm9.215-35.8v14.2c.592.042,1.141.085,1.648.085H67.1a15.789,15.789,0,0,0,4.861-.761A7.269,7.269,0,0,0,75.43,79.2a6.532,6.532,0,0,0,1.31-4.354,6.957,6.957,0,0,0-.972-3.762,6.13,6.13,0,0,0-2.959-2.409,12.4,12.4,0,0,0-4.988-.845c-1.1,0-2.071,0-2.874.042a9.678,9.678,0,0,0-1.733.042Zm49.116,11.624a14.96,14.96,0,0,0-4.058-1.437,22.282,22.282,0,0,0-4.734-.549,8.51,8.51,0,0,0-2.536.3,2.17,2.17,0,0,0-1.31.845,2.24,2.24,0,0,0-.338,1.141,1.88,1.88,0,0,0,.423,1.1,4.77,4.77,0,0,0,1.437,1.141c.972.507,1.987.972,3,1.395a30.615,30.615,0,0,1,6.509,3.086,9.835,9.835,0,0,1,3.339,3.508,9.125,9.125,0,0,1,.972,4.354,9.835,9.835,0,0,1-1.648,5.622,10.592,10.592,0,0,1-4.734,3.762A19.367,19.367,0,0,1,101,105.15a29.116,29.116,0,0,1-5.749-.549,17.05,17.05,0,0,1-4.311-1.353.831.831,0,0,1-.465-.8V95.09a.459.459,0,0,1,.169-.38.322.322,0,0,1,.38.042,18.094,18.094,0,0,0,5.241,2.071,19.678,19.678,0,0,0,4.988.634,8.068,8.068,0,0,0,3.508-.592,1.964,1.964,0,0,0,1.141-1.775,2.239,2.239,0,0,0-1.014-1.691,17.926,17.926,0,0,0-4.142-1.987,25.862,25.862,0,0,1-6-3.043,10.945,10.945,0,0,1-3.212-3.593,9.07,9.07,0,0,1-.972-4.311A9.941,9.941,0,0,1,92,75.351a10.419,10.419,0,0,1,4.438-3.889,16.391,16.391,0,0,1,7.482-1.479,36.439,36.439,0,0,1,5.241.38,14.872,14.872,0,0,1,3.635.972.742.742,0,0,1,.423.38,2.121,2.121,0,0,1,.085.507v6.89a.52.52,0,0,1-.211.423,1.126,1.126,0,0,1-.761,0Z" transform="translate(-54 -59.5)" fill="#31a8ff"/>
  </g>
</svg>
