<svg xmlns="http://www.w3.org/2000/svg" width="25.82" height="21.011" viewBox="0 0 25.82 21.011">
  <path id="twitter" d="M45.92,66.49a10.709,10.709,0,0,1-3.042.837,5.316,5.316,0,0,0,2.331-2.933,10.526,10.526,0,0,1-3.365,1.286A5.3,5.3,0,0,0,32.679,69.3a5.186,5.186,0,0,0,.137,1.209,15.013,15.013,0,0,1-10.921-5.543,5.308,5.308,0,0,0,1.647,7.08,5.174,5.174,0,0,1-2.407-.662v.066a5.3,5.3,0,0,0,4.251,5.2,5.332,5.332,0,0,1-1.4.186,5,5,0,0,1-1-.1,5.306,5.306,0,0,0,4.952,3.682,10.621,10.621,0,0,1-6.582,2.271,10.74,10.74,0,0,1-1.264-.077,14.807,14.807,0,0,0,8.109,2.4A14.983,14.983,0,0,0,43.294,69.92c0-.23-.005-.46-.016-.684A10.783,10.783,0,0,0,45.92,66.49Z" transform="translate(-20.1 -64)" fill="#fff"/>
</svg>
