<svg id="xd" xmlns="http://www.w3.org/2000/svg" width="90" height="87.75" viewBox="0 0 90 87.75">
  <path id="Path_6" data-name="Path 6" d="M74.063,87.75H15.937A15.923,15.923,0,0,1,0,71.813V15.937A15.923,15.923,0,0,1,15.937,0H74.063A15.923,15.923,0,0,1,90,15.937V71.813A15.923,15.923,0,0,1,74.063,87.75Z" fill="#ff26be"/>
  <path id="Path_7" data-name="Path 7" d="M172.755,184.054H117.746A13.569,13.569,0,0,1,104.2,170.509V117.745A13.569,13.569,0,0,1,117.746,104.2h54.973a13.544,13.544,0,0,1,13.546,13.545v52.728a13.524,13.524,0,0,1-13.51,13.581Z" transform="translate(-100.252 -100.252)" fill="#2e001f"/>
  <path id="Path_8" data-name="Path 8" d="M486.461,613.556l11.053,21.234c.2.315.08.633-.239.633h-6.87a.774.774,0,0,1-.83-.512c-2.527-5.21-5.092-10.42-7.737-16.024h-.08c-2.368,5.29-4.975,10.856-7.5,16.066a.762.762,0,0,1-.712.436h-6.506c-.394,0-.436-.315-.235-.553l10.814-20.6-10.458-20.84a.319.319,0,0,1,.235-.553h6.79c.394,0,.553.08.709.436,2.486,5.21,5.013,10.579,7.381,15.827h.08c2.289-5.21,4.816-10.617,7.264-15.789.2-.314.314-.511.712-.511h6.354c.315,0,.436.239.239.553Zm12.989,6.434c0-9.2,6.119-16.38,15.827-16.38a17.4,17.4,0,0,1,2.054.08V593.232a.393.393,0,0,1,.394-.394h6.237c.315,0,.394.117.394.314v36.235a28.182,28.182,0,0,0,.2,3.869c0,.239-.08.314-.315.436a23.5,23.5,0,0,1-10.105,2.289c-8.567.034-14.686-5.252-14.683-15.99Zm17.877-10.1a5.932,5.932,0,0,0-2.289-.394c-4.975,0-8.446,3.827-8.446,10.185,0,7.264,3.554,10.185,8.014,10.185a7.4,7.4,0,0,0,2.724-.436v-19.54Z" transform="translate(-451.274 -572.443)" fill="#ffd9f2"/>
</svg>
